<?xml version="1.0" encoding="UTF-8"?>
<!DOCTYPE svg PUBLIC "-//W3C//DTD SVG 1.1//EN" "http://www.w3.org/Graphics/SVG/1.1/DTD/svg11.dtd">
<svg xmlns="http://www.w3.org/2000/svg" version="1.1" width="225px" height="225px" style="shape-rendering:geometricPrecision; text-rendering:geometricPrecision; image-rendering:optimizeQuality; fill-rule:evenodd; clip-rule:evenodd" xmlns:xlink="http://www.w3.org/1999/xlink">
<g><path style="opacity:1" fill="#4560ab" d="M 172.5,67.5 C 171.903,70.9412 171.237,74.2746 170.5,77.5C 166.746,76.1724 165.579,73.5058 167,69.5C 168.637,67.3943 170.47,66.7276 172.5,67.5 Z"/></g>
<g><path style="opacity:1" fill="#418bca" d="M 172.5,67.5 C 175.695,67.5131 177.362,69.1798 177.5,72.5C 176.335,76.3971 174.001,78.0637 170.5,77.5C 171.237,74.2746 171.903,70.9412 172.5,67.5 Z"/></g>
<g><path style="opacity:0.898" fill="#a3b1d7" d="M 158.5,77.5 C 156.565,78.1495 154.565,78.4828 152.5,78.5C 154.402,76.8489 156.402,76.5155 158.5,77.5 Z"/></g>
<g><path style="opacity:1" fill="#3b5eab" d="M 158.5,77.5 C 158.833,77.5 159.167,77.5 159.5,77.5C 160.167,84.1667 160.833,90.8333 161.5,97.5C 158.833,98.8333 156.167,98.8333 153.5,97.5C 153.027,96.0937 152.027,95.427 150.5,95.5C 145.877,91.0553 145.377,86.0553 149,80.5C 150.113,79.695 151.279,79.0283 152.5,78.5C 154.565,78.4828 156.565,78.1495 158.5,77.5 Z"/></g>
<g><path style="opacity:1" fill="#2771ba" d="M 181.5,78.5 C 182.833,78.5 184.167,78.5 185.5,78.5C 185.201,86.253 185.534,93.9196 186.5,101.5C 185.5,103.167 184.167,104.5 182.5,105.5C 181.695,96.911 181.195,88.2443 181,79.5C 180.658,81.6192 179.825,81.9526 178.5,80.5C 178.973,79.0937 179.973,78.427 181.5,78.5 Z"/></g>
<g><path style="opacity:1" fill="#3089ca" d="M 186.5,101.5 C 185.534,93.9196 185.201,86.253 185.5,78.5C 184.167,78.5 182.833,78.5 181.5,78.5C 183.878,76.0821 186.545,75.9155 189.5,78C 196.48,81.3088 198.314,86.4755 195,93.5C 192.297,96.3714 189.464,99.0381 186.5,101.5 Z"/></g>
<g><path style="opacity:1" fill="#3387c8" d="M 159.5,77.5 C 160.922,77.7086 162.255,78.2086 163.5,79C 166.101,82.1117 169.101,84.6117 172.5,86.5C 172.5,87.1667 172.5,87.8333 172.5,88.5C 168.562,91.0985 164.895,94.0985 161.5,97.5C 160.833,90.8333 160.167,84.1667 159.5,77.5 Z"/></g>
<g><path style="opacity:1" fill="#2564b2" d="M 182.5,105.5 C 181.833,106.833 180.833,107.833 179.5,108.5C 178.506,99.3483 178.173,90.015 178.5,80.5C 179.825,81.9526 180.658,81.6192 181,79.5C 181.195,88.2443 181.695,96.911 182.5,105.5 Z"/></g>
<g><path style="opacity:1" fill="#4163ae" d="M 178.5,80.5 C 178.173,90.015 178.506,99.3483 179.5,108.5C 178.5,110.167 177.167,111.5 175.5,112.5C 174.733,108.585 174.233,104.585 174,100.5C 173.184,101.823 172.017,102.489 170.5,102.5C 171.508,100.661 173.008,99.3281 175,98.5C 176.89,94.5795 176.057,91.2462 172.5,88.5C 172.5,87.8333 172.5,87.1667 172.5,86.5C 174.167,84.1667 176.167,82.1667 178.5,80.5 Z"/></g>
<g><path style="opacity:0.014" fill="#f6f6f9" d="M 46.5,92.5 C 46.815,96.3714 46.4816,100.038 45.5,103.5C 44.5084,103.672 43.8417,103.338 43.5,102.5C 45.1187,99.4521 46.1187,96.1188 46.5,92.5 Z"/></g>
<g><path style="opacity:1" fill="#5471b6" d="M 53.5,92.5 C 51.8008,92.3398 50.1341,92.5065 48.5,93C 48.4871,104.788 48.8204,116.621 49.5,128.5C 48.8501,128.196 48.1835,127.863 47.5,127.5C 46.1502,128.95 44.4835,129.617 42.5,129.5C 42.9175,128.778 43.5842,128.278 44.5,128C 43.8016,127.029 43.8016,125.863 44.5,124.5C 44.1667,123.833 43.8333,123.167 43.5,122.5C 42.0052,123.705 40.6719,123.705 39.5,122.5C 41.4412,122.131 43.2745,121.464 45,120.5C 45.6667,117.5 45.6667,114.5 45,111.5C 44.0053,110.934 43.172,110.267 42.5,109.5C 44.2309,108.015 45.2309,106.015 45.5,103.5C 46.4816,100.038 46.815,96.3714 46.5,92.5C 47.1342,91.0532 48.3009,90.3866 50,90.5C 51.6991,90.3866 52.8658,91.0532 53.5,92.5 Z"/></g>
<g><path style="opacity:0.999" fill="#2a5dae" d="M 53.5,92.5 C 53.5,92.8333 53.5,93.1667 53.5,93.5C 53.5,104.833 53.5,116.167 53.5,127.5C 53.38,128.586 52.7133,129.253 51.5,129.5C 50.5836,129.457 49.9169,129.124 49.5,128.5C 48.8204,116.621 48.4871,104.788 48.5,93C 50.1341,92.5065 51.8008,92.3398 53.5,92.5 Z"/></g>
<g><path style="opacity:0.424" fill="#f2c0d4" d="M 107.5,91.5 C 107.5,103.833 107.5,116.167 107.5,128.5C 106.698,127.048 106.198,125.382 106,123.5C 105.617,124.056 105.117,124.389 104.5,124.5C 107.167,118.833 107.167,113.167 104.5,107.5C 105.117,107.611 105.617,107.944 106,108.5C 106.173,102.652 106.673,96.9851 107.5,91.5 Z"/></g>
<g><path style="opacity:0.998" fill="#ee518a" d="M 113.5,91.5 C 113.17,97.8682 113.504,104.202 114.5,110.5C 115.107,110.376 115.44,110.043 115.5,109.5C 117.162,111.912 118.162,114.746 118.5,118C 118.272,118.399 117.938,118.565 117.5,118.5C 116.504,118.414 115.671,118.748 115,119.5C 114.667,122.5 114.333,125.5 114,128.5C 111.726,129.811 109.56,129.811 107.5,128.5C 107.5,116.167 107.5,103.833 107.5,91.5C 109.5,90.1667 111.5,90.1667 113.5,91.5 Z"/></g>
<g><path style="opacity:0.887" fill="#f9aaa6" d="M 139.5,92.5 C 138.833,92.5 138.167,92.5 137.5,92.5C 136.833,92.5 136.167,92.5 135.5,92.5C 134.167,103.833 132.833,115.167 131.5,126.5C 130.89,125.609 130.557,124.609 130.5,123.5C 131.33,113.675 131.83,103.675 132,93.5C 133.009,92.3418 134.342,91.6752 136,91.5C 137.385,91.5143 138.551,91.8476 139.5,92.5 Z"/></g>
<g><path style="opacity:0.999" fill="#f3756d" d="M 135.5,92.5 C 135.5,104.5 135.5,116.5 135.5,128.5C 134.167,128.5 132.833,128.5 131.5,128.5C 131.5,127.833 131.5,127.167 131.5,126.5C 132.833,115.167 134.167,103.833 135.5,92.5 Z"/></g>
<g><path style="opacity:0.999" fill="#f38272" d="M 135.5,92.5 C 136.167,92.5 136.833,92.5 137.5,92.5C 138.139,97.0026 138.806,101.503 139.5,106C 138.167,107 138.167,108 139.5,109C 138.643,109.689 137.977,110.522 137.5,111.5C 138.368,116.228 139.035,120.728 139.5,125C 138.244,125.417 137.577,126.25 137.5,127.5C 137.389,128.117 137.056,128.617 136.5,129C 132.311,129.812 128.311,129.645 124.5,128.5C 126.833,128.5 129.167,128.5 131.5,128.5C 132.833,128.5 134.167,128.5 135.5,128.5C 135.5,116.5 135.5,104.5 135.5,92.5 Z"/></g>
<g><path style="opacity:0.997" fill="#f89a80" d="M 137.5,92.5 C 138.167,92.5 138.833,92.5 139.5,92.5C 139.717,95.8642 140.217,99.5308 141,103.5C 144.618,100.895 148.118,100.895 151.5,103.5C 150.167,103.5 148.833,103.5 147.5,103.5C 147.448,105.903 147.781,108.236 148.5,110.5C 145.887,109.364 143.387,109.698 141,111.5C 140.333,114.5 140.333,117.5 141,120.5C 141.995,121.066 142.828,121.733 143.5,122.5C 144.369,124.717 144.702,127.05 144.5,129.5C 146.167,129.5 147.833,129.5 149.5,129.5C 147.372,130.629 145.039,130.796 142.5,130C 140.922,128.906 139.255,128.072 137.5,127.5C 137.577,126.25 138.244,125.417 139.5,125C 139.035,120.728 138.368,116.228 137.5,111.5C 137.977,110.522 138.643,109.689 139.5,109C 138.167,108 138.167,107 139.5,106C 138.806,101.503 138.139,97.0026 137.5,92.5 Z"/></g>
<g><path style="opacity:0.02" fill="#f8f7fa" d="M 53.5,93.5 C 54.4767,96.2869 54.81,99.2869 54.5,102.5C 56.099,102.232 57.4324,102.566 58.5,103.5C 57.1667,103.5 55.8333,103.5 54.5,103.5C 54.5,111.5 54.5,119.5 54.5,127.5C 54.1667,127.5 53.8333,127.5 53.5,127.5C 53.5,116.167 53.5,104.833 53.5,93.5 Z"/></g>
<g><path style="opacity:0.456" fill="#f7b2c8" d="M 113.5,91.5 C 114.167,97.5 114.833,103.5 115.5,109.5C 115.44,110.043 115.107,110.376 114.5,110.5C 113.504,104.202 113.17,97.8682 113.5,91.5 Z"/></g>
<g><path style="opacity:0.361" fill="#b3b9d8" d="M 150.5,95.5 C 152.027,95.427 153.027,96.0937 153.5,97.5C 151.973,97.573 150.973,96.9063 150.5,95.5 Z"/></g>
<g><path style="opacity:1" fill="#4a63ad" d="M 43.5,102.5 C 43.8417,103.338 44.5084,103.672 45.5,103.5C 45.2309,106.015 44.2309,108.015 42.5,109.5C 36.151,110.027 33.9843,113.361 36,119.5C 37.1451,120.636 38.3117,121.636 39.5,122.5C 40.6719,123.705 42.0052,123.705 43.5,122.5C 43.8333,123.167 44.1667,123.833 44.5,124.5C 43.8016,125.863 43.8016,127.029 44.5,128C 43.5842,128.278 42.9175,128.778 42.5,129.5C 30.1446,129.593 25.3113,123.26 28,110.5C 30.9615,103.436 36.1282,100.77 43.5,102.5 Z"/></g>
<g><path style="opacity:1" fill="#4587c8" d="M 99.5,103.5 C 97.9867,104.309 96.3201,104.476 94.5,104C 96.6582,105.983 98.3249,108.317 99.5,111C 99.2716,111.399 98.9382,111.565 98.5,111.5C 96.8621,110.841 95.1955,110.174 93.5,109.5C 91.8045,110.174 90.1379,110.841 88.5,111.5C 88.44,110.957 88.1067,110.624 87.5,110.5C 86.7425,111.811 85.7425,112.311 84.5,112C 85.2911,109.25 85.2911,106.417 84.5,103.5C 85.1499,103.804 85.8165,104.137 86.5,104.5C 90.8191,101.307 95.1524,100.973 99.5,103.5 Z"/></g>
<g><path style="opacity:1" fill="#398aca" d="M 99.5,103.5 C 101.749,104.08 103.415,105.413 104.5,107.5C 107.167,113.167 107.167,118.833 104.5,124.5C 103.415,126.587 101.749,127.92 99.5,128.5C 97.5766,126.273 96.9099,123.94 97.5,121.5C 98.3242,118.236 98.6576,114.902 98.5,111.5C 98.9382,111.565 99.2716,111.399 99.5,111C 98.3249,108.317 96.6582,105.983 94.5,104C 96.3201,104.476 97.9867,104.309 99.5,103.5 Z"/></g>
<g><path style="opacity:1" fill="#4556a4" d="M 175.5,112.5 C 172.82,117.772 169.987,117.772 167,112.5C 165.756,108.191 166.923,104.858 170.5,102.5C 172.017,102.489 173.184,101.823 174,100.5C 174.233,104.585 174.733,108.585 175.5,112.5 Z"/></g>
<g><path style="opacity:1" fill="#3e6cb6" d="M 58.5,103.5 C 59.1667,103.5 59.5,103.833 59.5,104.5C 59.9175,105.222 60.5842,105.722 61.5,106C 61.1667,106.333 60.8333,106.667 60.5,107C 61.2666,108.47 61.9332,109.97 62.5,111.5C 62.2529,114.939 62.5863,118.272 63.5,121.5C 63.19,122.738 62.69,122.738 62,121.5C 61.8563,124.025 61.6896,126.358 61.5,128.5C 62.4349,131.113 62.6015,133.779 62,136.5C 59.0731,139.156 56.2398,138.99 53.5,136C 54.4438,133.281 54.7771,130.448 54.5,127.5C 54.5,119.5 54.5,111.5 54.5,103.5C 55.8333,103.5 57.1667,103.5 58.5,103.5 Z"/></g>
<g><path style="opacity:1" fill="#447ac0" d="M 80.5,109.5 C 80.5,113.833 80.5,118.167 80.5,122.5C 75.7251,129.52 69.3917,131.52 61.5,128.5C 61.6896,126.358 61.8563,124.025 62,121.5C 62.69,122.738 63.19,122.738 63.5,121.5C 71.8142,122.665 74.4809,119.165 71.5,111C 68.4215,109.195 65.4215,109.361 62.5,111.5C 61.9332,109.97 61.2666,108.47 60.5,107C 60.8333,106.667 61.1667,106.333 61.5,106C 60.5842,105.722 59.9175,105.222 59.5,104.5C 68.0547,99.7984 75.0547,101.465 80.5,109.5 Z"/></g>
<g><path style="opacity:1" fill="#2c7ac1" d="M 84.5,103.5 C 85.2911,106.417 85.2911,109.25 84.5,112C 85.7425,112.311 86.7425,111.811 87.5,110.5C 88.1067,110.624 88.44,110.957 88.5,111.5C 88.5,111.833 88.5,112.167 88.5,112.5C 87.6862,114.631 87.1862,116.964 87,119.5C 86.0862,118.346 85.2529,118.513 84.5,120C 85.2744,122.405 85.7744,124.905 86,127.5C 86.9772,126.226 87.8106,126.226 88.5,127.5C 87.5206,130.625 87.1872,133.958 87.5,137.5C 85.4402,138.811 83.2735,138.811 81,137.5C 80.5007,132.511 80.3341,127.511 80.5,122.5C 80.5,118.167 80.5,113.833 80.5,109.5C 80.5,107.167 80.5,104.833 80.5,102.5C 82.099,102.232 83.4324,102.566 84.5,103.5 Z"/></g>
<g><path style="opacity:1" fill="#f7a066" d="M 151.5,103.5 C 156.514,106.016 158.847,110.182 158.5,116C 158.838,122.846 155.838,127.346 149.5,129.5C 147.833,129.5 146.167,129.5 144.5,129.5C 144.702,127.05 144.369,124.717 143.5,122.5C 149.867,122.128 152.034,118.794 150,112.5C 149.722,111.584 149.222,110.918 148.5,110.5C 147.781,108.236 147.448,105.903 147.5,103.5C 148.833,103.5 150.167,103.5 151.5,103.5 Z"/></g>
<g><path style="opacity:1" fill="#f37087" d="M 130.5,123.5 C 130.557,124.609 130.89,125.609 131.5,126.5C 131.5,127.167 131.5,127.833 131.5,128.5C 129.167,128.5 126.833,128.5 124.5,128.5C 121.687,125.554 119.354,122.221 117.5,118.5C 117.938,118.565 118.272,118.399 118.5,118C 118.162,114.746 117.162,111.912 115.5,109.5C 117.937,107.567 120.271,105.4 122.5,103C 124.833,102.333 127.167,102.333 129.5,103C 130.517,104.049 130.684,105.216 130,106.5C 127.205,108.293 124.705,110.46 122.5,113C 125.383,116.376 128.049,119.876 130.5,123.5 Z"/></g>
<g><path style="opacity:1" fill="#4386c8" d="M 88.5,112.5 C 86.6485,120.65 89.6485,123.65 97.5,121.5C 96.9099,123.94 97.5766,126.273 99.5,128.5C 98.4324,129.434 97.099,129.768 95.5,129.5C 94.8333,129.5 94.1667,129.5 93.5,129.5C 91.7085,129.634 90.0418,129.301 88.5,128.5C 88.5,128.167 88.5,127.833 88.5,127.5C 87.8106,126.226 86.9772,126.226 86,127.5C 85.7744,124.905 85.2744,122.405 84.5,120C 85.2529,118.513 86.0862,118.346 87,119.5C 87.1862,116.964 87.6862,114.631 88.5,112.5 Z"/></g>
<g><path style="opacity:0.12" fill="#e6eff5" d="M 88.5,127.5 C 88.5,127.833 88.5,128.167 88.5,128.5C 88.2322,130.099 88.5655,131.432 89.5,132.5C 89.5,133.167 89.5,133.833 89.5,134.5C 88.1667,135.167 88.1667,135.833 89.5,136.5C 89.5,137.167 89.5,137.833 89.5,138.5C 88.8333,138.167 88.1667,137.833 87.5,137.5C 87.1872,133.958 87.5206,130.625 88.5,127.5 Z"/></g>
<g><path style="opacity:0.017" fill="#dde5f0" d="M 115.5,131.5 C 115.5,132.167 115.5,132.833 115.5,133.5C 115.5,134.833 115.5,136.167 115.5,137.5C 117.265,138.461 119.265,138.795 121.5,138.5C 119.393,139.468 117.059,139.802 114.5,139.5C 114.194,136.615 114.527,133.948 115.5,131.5 Z"/></g>
<g><path style="opacity:0.011" fill="#d2e1ef" d="M 93.5,129.5 C 94.1667,129.5 94.8333,129.5 95.5,129.5C 95.2322,131.099 95.5655,132.432 96.5,133.5C 96.3253,135.621 96.6586,137.621 97.5,139.5C 95.901,139.768 94.5676,139.434 93.5,138.5C 94.2389,138.631 94.9056,138.464 95.5,138C 93.637,135.882 92.9704,133.716 93.5,131.5C 93.5,130.833 93.5,130.167 93.5,129.5 Z"/></g>
<g><path style="opacity:1" fill="#4891ce" d="M 93.5,131.5 C 92.9704,133.716 93.637,135.882 95.5,138C 94.9056,138.464 94.2389,138.631 93.5,138.5C 92.1667,138.5 90.8333,138.5 89.5,138.5C 89.5,137.833 89.5,137.167 89.5,136.5C 89.5,135.833 89.5,135.167 89.5,134.5C 89.5,133.833 89.5,133.167 89.5,132.5C 90.0955,129.887 90.9288,129.887 92,132.5C 92.3826,131.944 92.8826,131.611 93.5,131.5 Z"/></g>
<g><path style="opacity:0.46" fill="#bdc4dc" d="M 153.5,133.5 C 154.919,132.549 156.585,132.216 158.5,132.5C 158.806,135.385 158.473,138.052 157.5,140.5C 157.5,138.167 157.5,135.833 157.5,133.5C 156.167,133.5 154.833,133.5 153.5,133.5 Z"/></g>
<g><path style="opacity:0.5" fill="#91a8d1" d="M 133.5,133.5 C 134.167,133.5 134.833,133.5 135.5,133.5C 136.5,134.167 137.5,134.833 138.5,135.5C 137.167,135.5 136.5,136.167 136.5,137.5C 136.899,138.521 138.233,138.854 140.5,138.5C 138.052,139.473 135.385,139.806 132.5,139.5C 132.843,137.517 132.176,136.183 130.5,135.5C 131.5,134.833 132.5,134.167 133.5,133.5 Z"/></g>
<g><path style="opacity:1" fill="#7086bf" d="M 147.5,133.5 C 148.5,134.167 149.5,134.833 150.5,135.5C 148.824,136.183 148.157,137.517 148.5,139.5C 145.721,139.721 143.054,139.388 140.5,138.5C 138.233,138.854 136.899,138.521 136.5,137.5C 137.833,137.5 138.5,136.833 138.5,135.5C 137.5,134.833 136.5,134.167 135.5,133.5C 139.887,129.591 142.387,130.924 143,137.5C 143.98,135.941 144.813,134.274 145.5,132.5C 146.183,132.863 146.85,133.196 147.5,133.5 Z"/></g>
<g><path style="opacity:1" fill="#5e6cb2" d="M 153.5,133.5 C 154.833,133.5 156.167,133.5 157.5,133.5C 157.5,135.833 157.5,138.167 157.5,140.5C 157.167,140.5 156.833,140.5 156.5,140.5C 155.209,140.737 154.209,140.404 153.5,139.5C 153.167,138.167 152.833,138.167 152.5,139.5C 150.824,138.817 150.157,137.483 150.5,135.5C 149.5,134.833 148.5,134.167 147.5,133.5C 149.643,132.973 151.643,132.973 153.5,133.5 Z"/></g>
<g><path style="opacity:0.169" fill="#cbcee3" d="M 154.5,136.5 C 153.957,136.44 153.624,136.107 153.5,135.5C 154.325,134.614 155.325,134.281 156.5,134.5C 156.719,135.675 156.386,136.675 155.5,137.5C 154.893,137.376 154.56,137.043 154.5,136.5 Z"/></g>
<g><path style="opacity:1" fill="#4e8dca" d="M 104.5,132.5 C 104.299,134.708 104.633,137.041 105.5,139.5C 103.983,139.489 102.816,138.823 102,137.5C 100.89,139.037 99.3904,139.703 97.5,139.5C 96.6586,137.621 96.3253,135.621 96.5,133.5C 98.0098,132.272 99.5098,132.272 101,133.5C 102.041,131.689 103.207,131.355 104.5,132.5 Z"/></g>
<g><path style="opacity:0.129" fill="#dde9f3" d="M 99.5,135.5 C 100.043,135.56 100.376,135.893 100.5,136.5C 99.675,137.386 98.675,137.719 97.5,137.5C 97.281,136.325 97.6143,135.325 98.5,134.5C 99.1067,134.624 99.44,134.957 99.5,135.5 Z"/></g>
<g><path style="opacity:1" fill="#8dacd7" d="M 118.5,135.5 C 118.833,136.833 119.167,136.833 119.5,135.5C 120.043,135.56 120.376,135.893 120.5,136.5C 118.955,137.452 117.288,137.785 115.5,137.5C 115.5,136.167 115.5,134.833 115.5,133.5C 121.332,132.183 121.665,132.683 116.5,135C 117.094,135.464 117.761,135.631 118.5,135.5 Z"/></g>
<g><path style="opacity:0.725" fill="#9fbedf" d="M 104.5,132.5 C 105.609,132.557 106.609,132.89 107.5,133.5C 108.919,132.549 110.585,132.216 112.5,132.5C 112.5,134.833 112.5,137.167 112.5,139.5C 110.167,139.5 107.833,139.5 105.5,139.5C 104.633,137.041 104.299,134.708 104.5,132.5 Z"/></g>
<g><path style="opacity:1" fill="#1c6ebc" d="M 107.5,133.5 C 108.833,133.5 110.167,133.5 111.5,133.5C 111.653,139.324 110.987,139.657 109.5,134.5C 108.893,134.624 108.56,134.957 108.5,135.5C 107.778,135.918 107.278,136.584 107,137.5C 106.421,136.072 106.588,134.738 107.5,133.5 Z"/></g>
<g><path style="opacity:0.702" fill="#668cc6" d="M 123.5,133.5 C 125.492,133.328 127.158,133.995 128.5,135.5C 129.298,135.043 129.631,134.376 129.5,133.5C 130.833,132.167 132.167,132.167 133.5,133.5C 132.5,134.167 131.5,134.833 130.5,135.5C 130.5,136.833 130.5,138.167 130.5,139.5C 127.43,139.632 124.43,139.299 121.5,138.5C 119.265,138.795 117.265,138.461 115.5,137.5C 117.288,137.785 118.955,137.452 120.5,136.5C 120.376,135.893 120.043,135.56 119.5,135.5C 119.167,135.5 118.833,135.5 118.5,135.5C 117.761,135.631 117.094,135.464 116.5,135C 121.665,132.683 121.332,132.183 115.5,133.5C 115.5,132.833 115.5,132.167 115.5,131.5C 118.762,129.821 121.429,130.488 123.5,133.5 Z M 124.5,135.5 C 126.337,135.639 126.67,136.306 125.5,137.5C 124.702,137.043 124.369,136.376 124.5,135.5 Z"/></g>
<g><path style="opacity:0.682" fill="#a0b8d8" d="M 123.5,133.5 C 125.389,132.258 127.389,132.258 129.5,133.5C 129.631,134.376 129.298,135.043 128.5,135.5C 127.158,133.995 125.492,133.328 123.5,133.5 Z"/></g>
<g><path style="opacity:0.631" fill="#a7b0d2" d="M 152.5,139.5 C 152.833,139.5 153.167,139.5 153.5,139.5C 154.209,140.404 155.209,140.737 156.5,140.5C 156.083,141.124 155.416,141.457 154.5,141.5C 153.287,141.253 152.62,140.586 152.5,139.5 Z"/></g>
<g><path style="opacity:0.012" fill="#fefdfd" d="M 98.5,142.5 C 98.8333,142.5 99.1667,142.5 99.5,142.5C 99.5,143.5 99.5,144.5 99.5,145.5C 102.58,144.304 105.413,144.304 108,145.5C 108.483,144.552 108.649,143.552 108.5,142.5C 108.833,142.5 109.167,142.5 109.5,142.5C 109.5,143.5 109.5,144.5 109.5,145.5C 116.783,145.03 124.116,144.864 131.5,145C 130.748,144.329 130.414,143.496 130.5,142.5C 131.167,142.5 131.833,142.5 132.5,142.5C 132.5,143.5 132.5,144.5 132.5,145.5C 134.167,145.5 135.833,145.5 137.5,145.5C 121.833,146.833 106.167,146.833 90.5,145.5C 92.9946,145.031 95.6613,145.031 98.5,145.5C 98.5,144.5 98.5,143.5 98.5,142.5 Z"/></g>
<g><path style="opacity:0.276" fill="#f9e4d6" d="M 137.5,145.5 C 135.833,145.5 134.167,145.5 132.5,145.5C 132.5,144.5 132.5,143.5 132.5,142.5C 137.112,142.742 141.945,142.409 147,141.5C 150.076,142.288 153.242,142.788 156.5,143C 156.957,143.414 157.291,143.914 157.5,144.5C 155.314,145.221 153.147,145.887 151,146.5C 146.463,146.356 141.963,146.023 137.5,145.5 Z"/></g>
<g><path style="opacity:0.543" fill="#f3cfce" d="M 108.5,142.5 C 108.649,143.552 108.483,144.552 108,145.5C 105.413,144.304 102.58,144.304 99.5,145.5C 99.5,144.5 99.5,143.5 99.5,142.5C 102.354,142.118 105.354,142.118 108.5,142.5 Z"/></g>
<g><path style="opacity:0.318" fill="#f8d8df" d="M 98.5,142.5 C 98.5,143.5 98.5,144.5 98.5,145.5C 95.6613,145.031 92.9946,145.031 90.5,145.5C 75.9276,145.302 61.4276,145.636 47,146.5C 45.2713,144.566 43.2713,144.566 41,146.5C 37.3333,145.167 33.6667,145.167 30,146.5C 29.3333,144.833 29.3333,143.167 30,141.5C 41.244,142.655 52.5773,142.655 64,141.5C 65.3333,142.167 66.3333,143.167 67,144.5C 70.0771,142.885 73.4105,141.885 77,141.5C 84.6395,142.471 91.8062,142.804 98.5,142.5 Z"/></g>
<g><path style="opacity:0.196" fill="#f8e0da" d="M 130.5,142.5 C 130.414,143.496 130.748,144.329 131.5,145C 124.116,144.864 116.783,145.03 109.5,145.5C 109.5,144.5 109.5,143.5 109.5,142.5C 116.783,142.289 123.783,142.289 130.5,142.5 Z"/></g>
</svg>
